<svg width="800" height="200" viewBox="0 0 800 200" fill="none" xmlns="http://www.w3.org/2000/svg">
  <!-- Icon container -->
  <g transform="translate(30, 30)">
    <!-- Background -->
    <rect width="140" height="140" rx="28" fill="#FCD34D"/>

    <!-- Bell icon -->
    <path d="M70 36C57.85 36 48 45.85 48 58V68.145C48 71.904 46.51 75.509 43.875 78.217L40.072 82.129C37.184 85.096 39.285 90 43.393 90H96.607C100.715 90 102.816 85.096 99.928 82.129L96.125 78.217C93.49 75.509 92 71.904 92 68.145V58C92 45.85 82.15 36 70 36Z" fill="white"/>

    <!-- Bell clapper -->
    <ellipse cx="70" cy="94" rx="8" ry="4" fill="white"/>

    <!-- Bell hook -->
    <circle cx="70" cy="30" r="4" fill="white"/>
    <rect x="66" y="30" width="8" height="8" fill="white"/>

    <!-- Notification dot -->
    <circle cx="88" cy="50" r="12" fill="#DC2626"/>
  </g>

  <!-- Text: AlertFrame -->
  <text x="210" y="120" font-family="system-ui, -apple-system, sans-serif" font-size="72" font-weight="700" fill="#1F2937">
    Alert<tspan fill="#F59E0B">Frame</tspan>
  </text>

  <!-- Tagline -->
  <text x="212" y="155" font-family="system-ui, -apple-system, sans-serif" font-size="20" font-weight="400" fill="#6B7280">
    Visual Website Monitoring
  </text>
</svg>
